<svg width="20" height="16" viewBox="0 0 20 16" fill="none" xmlns="http://www.w3.org/2000/svg">
<path d="M19.7025 2.11439C19.0066 2.42273 18.2591 2.63106 17.4733 2.72523C18.2841 2.24005 18.8908 1.47645 19.18 0.576894C18.4182 1.02938 17.5844 1.34789 16.715 1.51856C16.1303 0.894281 15.3559 0.480499 14.5119 0.341455C13.668 0.202412 12.8017 0.345886 12.0477 0.749604C11.2936 1.15332 10.694 1.7947 10.3418 2.57415C9.98958 3.3536 9.90459 4.22752 10.1 5.06023C8.55638 4.98272 7.04633 4.58152 5.66783 3.88265C4.28932 3.18378 3.07317 2.20286 2.09831 1.00356C1.76497 1.57856 1.57331 2.24523 1.57331 2.95523C1.57294 3.59439 1.73033 4.22376 2.03154 4.7875C2.33274 5.35125 2.76844 5.83193 3.29997 6.18689C2.68354 6.16728 2.0807 6.00071 1.54164 5.70106V5.75106C1.54158 6.64751 1.85167 7.51638 2.41929 8.21022C2.98692 8.90407 3.77712 9.38017 4.65581 9.55773C4.08396 9.71249 3.48442 9.73529 2.90247 9.62439C3.15039 10.3957 3.6333 11.0702 4.28361 11.5535C4.93392 12.0367 5.71907 12.3045 6.52914 12.3194C5.154 13.3989 3.45571 13.9845 1.70747 13.9819C1.39779 13.982 1.08837 13.9639 0.780807 13.9277C2.55537 15.0687 4.62109 15.6742 6.73081 15.6719C13.8725 15.6719 17.7766 9.75689 17.7766 4.62689C17.7766 4.46023 17.7725 4.29189 17.765 4.12523C18.5244 3.57604 19.1799 2.89597 19.7008 2.11689L19.7025 2.11439Z" fill="white"/>
</svg>
