<svg width="20" height="20" viewBox="0 0 20 20" fill="none" xmlns="http://www.w3.org/2000/svg">
<path fill-rule="evenodd" clip-rule="evenodd" d="M0.833351 2.36516C0.833351 1.95894 0.994723 1.56936 1.28197 1.28211C1.56921 0.99487 1.95879 0.833498 2.36502 0.833498H17.6334C17.8347 0.833169 18.0341 0.872551 18.2201 0.949387C18.4062 1.02622 18.5753 1.13901 18.7177 1.28128C18.8602 1.42355 18.9731 1.59252 19.0502 1.77851C19.1272 1.96449 19.1668 2.16385 19.1667 2.36516V17.6335C19.1669 17.8348 19.1274 18.0343 19.0505 18.2203C18.9736 18.4064 18.8607 18.5755 18.7184 18.7179C18.576 18.8603 18.407 18.9733 18.221 19.0503C18.0349 19.1273 17.8355 19.1669 17.6342 19.1668H2.36502C2.16381 19.1668 1.96457 19.1272 1.77868 19.0502C1.5928 18.9731 1.42391 18.8602 1.28167 18.7179C1.13943 18.5756 1.02663 18.4067 0.949703 18.2207C0.872779 18.0348 0.833242 17.8355 0.833351 17.6343V2.36516ZM8.09002 7.8235H10.5725V9.07016C10.9309 8.3535 11.8475 7.7085 13.225 7.7085C15.8659 7.7085 16.4917 9.136 16.4917 11.7552V16.6068H13.8192V12.3518C13.8192 10.8602 13.4609 10.0185 12.5509 10.0185C11.2884 10.0185 10.7634 10.926 10.7634 12.3518V16.6068H8.09002V7.8235ZM3.50668 16.4927H6.18002V7.7085H3.50668V16.4918V16.4927ZM6.56252 4.8435C6.56756 5.07239 6.52683 5.29999 6.44272 5.51293C6.35861 5.72587 6.23281 5.91986 6.07271 6.08352C5.91261 6.24719 5.72143 6.37723 5.5104 6.466C5.29936 6.55478 5.07272 6.60051 4.84377 6.60051C4.61482 6.60051 4.38818 6.55478 4.17714 6.466C3.9661 6.37723 3.77492 6.24719 3.61483 6.08352C3.45473 5.91986 3.32893 5.72587 3.24482 5.51293C3.16071 5.29999 3.11998 5.07239 3.12502 4.8435C3.13491 4.39421 3.32034 3.96666 3.64159 3.6524C3.96284 3.33815 4.39437 3.16218 4.84377 3.16218C5.29316 3.16218 5.7247 3.33815 6.04595 3.6524C6.3672 3.96666 6.55262 4.39421 6.56252 4.8435Z" fill="white"/>
</svg>
